<mxfile host="app.diagrams.net" modified="2023-06-07T13:10:02.264Z" agent="Mozilla/5.0 (Windows NT 10.0; Win64; x64) AppleWebKit/537.36 (KHTML, like Gecko) Chrome/114.0.0.0 Safari/537.36 Edg/114.0.1823.37" etag="Qa6so2SHRHyV1GGqgZEq" version="21.3.2" type="device">
  <diagram id="R2lEEEUBdFMjLlhIrx00" name="Page-1">
    <mxGraphModel dx="1920" dy="1088" grid="1" gridSize="10" guides="0" tooltips="1" connect="1" arrows="1" fold="1" page="1" pageScale="1" pageWidth="2336" pageHeight="1654" math="0" shadow="0" extFonts="Permanent Marker^https://fonts.googleapis.com/css?family=Permanent+Marker">
      <root>
        <mxCell id="0" />
        <mxCell id="1" parent="0" />
        <mxCell id="fwJii2BHvyb1H4AOAWzg-3" value="&lt;font face=&quot;Times New Roman&quot; style=&quot;font-size: 20px;&quot;&gt;Real-time data&lt;/font&gt;" style="shape=ext;margin=3;double=1;whiteSpace=wrap;html=1;align=center;" vertex="1" parent="1">
          <mxGeometry x="1040" y="460" width="200" height="60" as="geometry" />
        </mxCell>
        <mxCell id="fwJii2BHvyb1H4AOAWzg-6" value="" style="edgeStyle=orthogonalEdgeStyle;rounded=0;orthogonalLoop=1;jettySize=auto;html=1;shape=link;" edge="1" parent="1" source="fwJii2BHvyb1H4AOAWzg-4" target="fwJii2BHvyb1H4AOAWzg-3">
          <mxGeometry relative="1" as="geometry" />
        </mxCell>
        <mxCell id="fwJii2BHvyb1H4AOAWzg-4" value="&lt;font style=&quot;font-size: 20px;&quot; face=&quot;Times New Roman&quot;&gt;have&lt;/font&gt;" style="shape=rhombus;double=1;perimeter=rhombusPerimeter;whiteSpace=wrap;html=1;align=center;" vertex="1" parent="1">
          <mxGeometry x="1040" y="570" width="200" height="60" as="geometry" />
        </mxCell>
        <mxCell id="fwJii2BHvyb1H4AOAWzg-9" value="" style="edgeStyle=orthogonalEdgeStyle;rounded=0;orthogonalLoop=1;jettySize=auto;html=1;endArrow=none;endFill=0;" edge="1" parent="1" source="fwJii2BHvyb1H4AOAWzg-7" target="fwJii2BHvyb1H4AOAWzg-4">
          <mxGeometry relative="1" as="geometry" />
        </mxCell>
        <mxCell id="fwJii2BHvyb1H4AOAWzg-22" style="edgeStyle=orthogonalEdgeStyle;rounded=0;orthogonalLoop=1;jettySize=auto;html=1;entryX=0.5;entryY=0;entryDx=0;entryDy=0;endArrow=none;endFill=0;" edge="1" parent="1" source="fwJii2BHvyb1H4AOAWzg-7" target="fwJii2BHvyb1H4AOAWzg-16">
          <mxGeometry relative="1" as="geometry" />
        </mxCell>
        <mxCell id="fwJii2BHvyb1H4AOAWzg-7" value="&lt;font face=&quot;Times New Roman&quot; style=&quot;font-size: 20px;&quot;&gt;USER&lt;/font&gt;" style="whiteSpace=wrap;html=1;align=center;" vertex="1" parent="1">
          <mxGeometry x="1040" y="680" width="200" height="60" as="geometry" />
        </mxCell>
        <mxCell id="fwJii2BHvyb1H4AOAWzg-45" style="edgeStyle=orthogonalEdgeStyle;rounded=0;orthogonalLoop=1;jettySize=auto;html=1;entryX=0.25;entryY=1;entryDx=0;entryDy=0;endArrow=none;endFill=0;" edge="1" parent="1" source="fwJii2BHvyb1H4AOAWzg-12" target="fwJii2BHvyb1H4AOAWzg-14">
          <mxGeometry relative="1" as="geometry">
            <Array as="points">
              <mxPoint x="1020" y="1040" />
              <mxPoint x="1120" y="1040" />
              <mxPoint x="1120" y="1000" />
            </Array>
          </mxGeometry>
        </mxCell>
        <mxCell id="fwJii2BHvyb1H4AOAWzg-12" value="&lt;font face=&quot;Times New Roman&quot; style=&quot;font-size: 20px;&quot;&gt;have&lt;/font&gt;" style="shape=rhombus;double=1;perimeter=rhombusPerimeter;whiteSpace=wrap;html=1;align=center;" vertex="1" parent="1">
          <mxGeometry x="920" y="1080" width="200" height="60" as="geometry" />
        </mxCell>
        <mxCell id="fwJii2BHvyb1H4AOAWzg-21" style="edgeStyle=orthogonalEdgeStyle;rounded=0;orthogonalLoop=1;jettySize=auto;html=1;entryX=0.5;entryY=1;entryDx=0;entryDy=0;endArrow=none;endFill=0;" edge="1" parent="1" source="fwJii2BHvyb1H4AOAWzg-14" target="fwJii2BHvyb1H4AOAWzg-16">
          <mxGeometry relative="1" as="geometry" />
        </mxCell>
        <mxCell id="fwJii2BHvyb1H4AOAWzg-14" value="&lt;font face=&quot;Times New Roman&quot; style=&quot;font-size: 20px;&quot;&gt;VIDEO&lt;/font&gt;" style="whiteSpace=wrap;html=1;align=center;" vertex="1" parent="1">
          <mxGeometry x="1040" y="940" width="200" height="60" as="geometry" />
        </mxCell>
        <mxCell id="fwJii2BHvyb1H4AOAWzg-122" style="rounded=0;orthogonalLoop=1;jettySize=auto;html=1;entryX=0.25;entryY=1;entryDx=0;entryDy=0;endArrow=none;endFill=0;exitX=0.5;exitY=0;exitDx=0;exitDy=0;" edge="1" parent="1" source="fwJii2BHvyb1H4AOAWzg-15" target="fwJii2BHvyb1H4AOAWzg-7">
          <mxGeometry relative="1" as="geometry">
            <mxPoint x="1089.9999999999998" y="770" as="targetPoint" />
          </mxGeometry>
        </mxCell>
        <mxCell id="fwJii2BHvyb1H4AOAWzg-123" style="rounded=0;orthogonalLoop=1;jettySize=auto;html=1;entryX=0.25;entryY=0;entryDx=0;entryDy=0;endArrow=none;endFill=0;elbow=vertical;exitX=0.5;exitY=1;exitDx=0;exitDy=0;" edge="1" parent="1" source="fwJii2BHvyb1H4AOAWzg-15" target="fwJii2BHvyb1H4AOAWzg-14">
          <mxGeometry relative="1" as="geometry" />
        </mxCell>
        <mxCell id="fwJii2BHvyb1H4AOAWzg-15" value="&lt;font style=&quot;font-size: 20px;&quot; face=&quot;Times New Roman&quot;&gt;contribute&lt;/font&gt;" style="shape=rhombus;perimeter=rhombusPerimeter;whiteSpace=wrap;html=1;align=center;" vertex="1" parent="1">
          <mxGeometry x="920" y="810" width="200" height="60" as="geometry" />
        </mxCell>
        <mxCell id="fwJii2BHvyb1H4AOAWzg-16" value="&lt;p style=&quot;line-height: 19px;&quot;&gt;&lt;font style=&quot;font-size: 20px;&quot; face=&quot;Times New Roman&quot;&gt;comment&lt;/font&gt;&lt;/p&gt;" style="shape=rhombus;perimeter=rhombusPerimeter;whiteSpace=wrap;html=1;align=center;fontColor=default;labelBackgroundColor=none;" vertex="1" parent="1">
          <mxGeometry x="1400" y="810" width="200" height="56" as="geometry" />
        </mxCell>
        <mxCell id="fwJii2BHvyb1H4AOAWzg-19" value="" style="rounded=0;orthogonalLoop=1;jettySize=auto;html=1;endArrow=none;endFill=0;entryX=0.75;entryY=1;entryDx=0;entryDy=0;exitX=0.5;exitY=0;exitDx=0;exitDy=0;labelPosition=center;verticalLabelPosition=top;align=center;verticalAlign=bottom;fontColor=none;noLabel=1;" edge="1" parent="1" source="fwJii2BHvyb1H4AOAWzg-18" target="fwJii2BHvyb1H4AOAWzg-7">
          <mxGeometry relative="1" as="geometry">
            <mxPoint x="1190" y="770" as="targetPoint" />
          </mxGeometry>
        </mxCell>
        <mxCell id="fwJii2BHvyb1H4AOAWzg-20" value="" style="rounded=0;orthogonalLoop=1;jettySize=auto;html=1;endArrow=none;endFill=0;entryX=0.75;entryY=0;entryDx=0;entryDy=0;" edge="1" parent="1" target="fwJii2BHvyb1H4AOAWzg-14">
          <mxGeometry relative="1" as="geometry">
            <mxPoint x="1260" y="870" as="sourcePoint" />
            <mxPoint x="1190" y="890" as="targetPoint" />
          </mxGeometry>
        </mxCell>
        <mxCell id="fwJii2BHvyb1H4AOAWzg-18" value="&lt;font face=&quot;Times New Roman&quot;&gt;&lt;span style=&quot;font-size: 20px;&quot;&gt;publish&lt;/span&gt;&lt;/font&gt;" style="shape=rhombus;perimeter=rhombusPerimeter;whiteSpace=wrap;html=1;align=center;" vertex="1" parent="1">
          <mxGeometry x="1160" y="810" width="200" height="60" as="geometry" />
        </mxCell>
        <mxCell id="fwJii2BHvyb1H4AOAWzg-27" value="" style="edgeStyle=orthogonalEdgeStyle;rounded=0;orthogonalLoop=1;jettySize=auto;html=1;shape=link;" edge="1" parent="1" source="fwJii2BHvyb1H4AOAWzg-25" target="fwJii2BHvyb1H4AOAWzg-12">
          <mxGeometry relative="1" as="geometry" />
        </mxCell>
        <mxCell id="fwJii2BHvyb1H4AOAWzg-25" value="&lt;font face=&quot;Times New Roman&quot; style=&quot;font-size: 20px;&quot;&gt;Real-time data&lt;/font&gt;" style="shape=ext;margin=3;double=1;whiteSpace=wrap;html=1;align=center;" vertex="1" parent="1">
          <mxGeometry x="920" y="1190" width="200" height="60" as="geometry" />
        </mxCell>
        <mxCell id="fwJii2BHvyb1H4AOAWzg-49" style="edgeStyle=orthogonalEdgeStyle;rounded=0;orthogonalLoop=1;jettySize=auto;html=1;entryX=0.5;entryY=1;entryDx=0;entryDy=0;endArrow=none;endFill=0;" edge="1" parent="1" source="fwJii2BHvyb1H4AOAWzg-46" target="fwJii2BHvyb1H4AOAWzg-47">
          <mxGeometry relative="1" as="geometry" />
        </mxCell>
        <mxCell id="fwJii2BHvyb1H4AOAWzg-46" value="&lt;font face=&quot;Times New Roman&quot; style=&quot;font-size: 20px;&quot;&gt;Zone&lt;/font&gt;" style="whiteSpace=wrap;html=1;align=center;" vertex="1" parent="1">
          <mxGeometry x="1160" y="1190" width="200" height="60" as="geometry" />
        </mxCell>
        <mxCell id="fwJii2BHvyb1H4AOAWzg-48" style="edgeStyle=orthogonalEdgeStyle;rounded=0;orthogonalLoop=1;jettySize=auto;html=1;entryX=0.75;entryY=1;entryDx=0;entryDy=0;endArrow=none;endFill=0;" edge="1" parent="1" source="fwJii2BHvyb1H4AOAWzg-47" target="fwJii2BHvyb1H4AOAWzg-14">
          <mxGeometry relative="1" as="geometry">
            <Array as="points">
              <mxPoint x="1260" y="1040" />
              <mxPoint x="1160" y="1040" />
              <mxPoint x="1160" y="1000" />
            </Array>
          </mxGeometry>
        </mxCell>
        <mxCell id="fwJii2BHvyb1H4AOAWzg-47" value="&lt;p&gt;&lt;/p&gt;&lt;ul style=&quot;box-sizing: border-box; border-width: 0px; border-style: solid; border-color: currentcolor; --tw-border-spacing-x: 0; --tw-border-spacing-y: 0; --tw-translate-x: 0; --tw-translate-y: 0; --tw-rotate: 0; --tw-skew-x: 0; --tw-skew-y: 0; --tw-scale-x: 1; --tw-scale-y: 1; --tw-pan-x: ; --tw-pan-y: ; --tw-pinch-zoom: ; --tw-scroll-snap-strictness: proximity; --tw-gradient-from-position: ; --tw-gradient-via-position: ; --tw-gradient-to-position: ; --tw-ordinal: ; --tw-slashed-zero: ; --tw-numeric-figure: ; --tw-numeric-spacing: ; --tw-numeric-fraction: ; --tw-ring-inset: ; --tw-ring-offset-width: 0px; --tw-ring-offset-color: #fff; --tw-ring-color: rgb(0 125 178 / 0.5); --tw-ring-offset-shadow: 0 0 #0000; --tw-ring-shadow: 0 0 #0000; --tw-shadow: 0 0 #0000; --tw-shadow-colored: 0 0 #0000; --tw-blur: ; --tw-brightness: ; --tw-contrast: ; --tw-grayscale: ; --tw-hue-rotate: ; --tw-invert: ; --tw-saturate: ; --tw-sepia: ; --tw-drop-shadow: ; --tw-backdrop-blur: ; --tw-backdrop-brightness: ; --tw-backdrop-contrast: ; --tw-backdrop-grayscale: ; --tw-backdrop-hue-rotate: ; --tw-backdrop-invert: ; --tw-backdrop-opacity: ; --tw-backdrop-saturate: ; --tw-backdrop-sepia: ; list-style: none; margin: 0px; padding: 0px; color: rgb(27, 30, 37); font-size: 26px; background-color: rgb(255, 255, 255);&quot; aria-labelledby=&quot;alternatives-heading&quot;&gt;&lt;li style=&quot;text-align: left; box-sizing: border-box; border-width: 0px; border-style: solid; border-color: currentcolor; --tw-border-spacing-x: 0; --tw-border-spacing-y: 0; --tw-translate-x: 0; --tw-translate-y: 0; --tw-rotate: 0; --tw-skew-x: 0; --tw-skew-y: 0; --tw-scale-x: 1; --tw-scale-y: 1; --tw-pan-x: ; --tw-pan-y: ; --tw-pinch-zoom: ; --tw-scroll-snap-strictness: proximity; --tw-gradient-from-position: ; --tw-gradient-via-position: ; --tw-gradient-to-position: ; --tw-ordinal: ; --tw-slashed-zero: ; --tw-numeric-figure: ; --tw-numeric-spacing: ; --tw-numeric-fraction: ; --tw-ring-inset: ; --tw-ring-offset-width: 0px; --tw-ring-offset-color: #fff; --tw-ring-color: rgb(0 125 178 / 0.5); --tw-ring-offset-shadow: 0 0 #0000; --tw-ring-shadow: 0 0 #0000; --tw-shadow: 0 0 #0000; --tw-shadow-colored: 0 0 #0000; --tw-blur: ; --tw-brightness: ; --tw-contrast: ; --tw-grayscale: ; --tw-hue-rotate: ; --tw-invert: ; --tw-saturate: ; --tw-sepia: ; --tw-drop-shadow: ; --tw-backdrop-blur: ; --tw-backdrop-brightness: ; --tw-backdrop-contrast: ; --tw-backdrop-grayscale: ; --tw-backdrop-hue-rotate: ; --tw-backdrop-invert: ; --tw-backdrop-opacity: ; --tw-backdrop-saturate: ; --tw-backdrop-sepia: ; padding-left: 15px; padding-right: 40px; margin-left: -15px; margin-right: -40px; pointer-events: initial; cursor: initial; list-style-type: none;&quot; data-testid=&quot;translator-target-result-as-text-entry&quot; class=&quot;lmt__translations_as_text__item&quot;&gt;&lt;button style=&quot;border-width: initial; border-style: none; border-color: initial; --tw-border-spacing-x: 0; --tw-border-spacing-y: 0; --tw-translate-x: 0; --tw-translate-y: 0; --tw-rotate: 0; --tw-skew-x: 0; --tw-skew-y: 0; --tw-scale-x: 1; --tw-scale-y: 1; --tw-pan-x: ; --tw-pan-y: ; --tw-pinch-zoom: ; --tw-scroll-snap-strictness: proximity; --tw-gradient-from-position: ; --tw-gradient-via-position: ; --tw-gradient-to-position: ; --tw-ordinal: ; --tw-slashed-zero: ; --tw-numeric-figure: ; --tw-numeric-spacing: ; --tw-numeric-fraction: ; --tw-ring-inset: ; --tw-ring-offset-width: 0px; --tw-ring-offset-color: #fff; --tw-ring-color: rgb(0 125 178 / 0.5); --tw-ring-offset-shadow: 0 0 #0000; --tw-ring-shadow: 0 0 #0000; --tw-shadow: 0 0 #0000; --tw-shadow-colored: 0 0 #0000; --tw-blur: ; --tw-brightness: ; --tw-contrast: ; --tw-grayscale: ; --tw-hue-rotate: ; --tw-invert: ; --tw-saturate: ; --tw-sepia: ; --tw-drop-shadow: ; --tw-backdrop-blur: ; --tw-backdrop-brightness: ; --tw-backdrop-contrast: ; --tw-backdrop-grayscale: ; --tw-backdrop-hue-rotate: ; --tw-backdrop-invert: ; --tw-backdrop-opacity: ; --tw-backdrop-saturate: ; --tw-backdrop-sepia: ; font-size: 20px; font-weight: 400; line-height: inherit; color: rgb(0, 0, 0); margin: 0px; padding: 0px; appearance: button; background-color: rgba(0, 0, 0, 0); cursor: pointer; pointer-events: initial;&quot; aria-description=&quot;点击并应用&quot; lang=&quot;en-GB&quot; class=&quot;lmt__translations_as_text__text_btn&quot;&gt;&lt;font face=&quot;Times New Roman&quot;&gt;Zoned_in&lt;/font&gt;&lt;/button&gt;&lt;/li&gt;&lt;/ul&gt;&lt;p&gt;&lt;/p&gt;" style="shape=rhombus;perimeter=rhombusPerimeter;whiteSpace=wrap;html=1;align=center;" vertex="1" parent="1">
          <mxGeometry x="1160" y="1080" width="200" height="60" as="geometry" />
        </mxCell>
        <mxCell id="fwJii2BHvyb1H4AOAWzg-67" style="edgeStyle=orthogonalEdgeStyle;rounded=0;orthogonalLoop=1;jettySize=auto;html=1;endArrow=none;endFill=0;exitX=0.5;exitY=1;exitDx=0;exitDy=0;" edge="1" parent="1" source="fwJii2BHvyb1H4AOAWzg-50">
          <mxGeometry relative="1" as="geometry">
            <mxPoint x="1090" y="680" as="targetPoint" />
            <Array as="points">
              <mxPoint x="900" y="660" />
              <mxPoint x="1090" y="660" />
            </Array>
          </mxGeometry>
        </mxCell>
        <mxCell id="fwJii2BHvyb1H4AOAWzg-50" value="&lt;font face=&quot;Times New Roman&quot; style=&quot;font-size: 20px;&quot;&gt;UID&lt;/font&gt;" style="ellipse;whiteSpace=wrap;html=1;align=center;fontStyle=4;" vertex="1" parent="1">
          <mxGeometry x="840" y="570" width="120" height="60" as="geometry" />
        </mxCell>
        <mxCell id="fwJii2BHvyb1H4AOAWzg-65" style="edgeStyle=orthogonalEdgeStyle;rounded=0;orthogonalLoop=1;jettySize=auto;html=1;endArrow=none;endFill=0;" edge="1" parent="1" source="fwJii2BHvyb1H4AOAWzg-52">
          <mxGeometry relative="1" as="geometry">
            <mxPoint x="1090" y="680" as="targetPoint" />
            <Array as="points">
              <mxPoint x="820" y="500" />
              <mxPoint x="820" y="660" />
              <mxPoint x="1090" y="660" />
            </Array>
          </mxGeometry>
        </mxCell>
        <mxCell id="fwJii2BHvyb1H4AOAWzg-52" value="&lt;font face=&quot;Times New Roman&quot; style=&quot;font-size: 20px;&quot;&gt;name&lt;/font&gt;" style="ellipse;whiteSpace=wrap;html=1;align=center;" vertex="1" parent="1">
          <mxGeometry x="680" y="470" width="120" height="60" as="geometry" />
        </mxCell>
        <mxCell id="fwJii2BHvyb1H4AOAWzg-70" style="edgeStyle=orthogonalEdgeStyle;rounded=0;orthogonalLoop=1;jettySize=auto;html=1;endArrow=none;endFill=0;entryX=0.25;entryY=0;entryDx=0;entryDy=0;exitX=0.5;exitY=1;exitDx=0;exitDy=0;" edge="1" parent="1" source="fwJii2BHvyb1H4AOAWzg-53" target="fwJii2BHvyb1H4AOAWzg-7">
          <mxGeometry relative="1" as="geometry">
            <mxPoint x="1060" y="680" as="targetPoint" />
            <Array as="points">
              <mxPoint x="740" y="660" />
              <mxPoint x="1090" y="660" />
            </Array>
          </mxGeometry>
        </mxCell>
        <mxCell id="fwJii2BHvyb1H4AOAWzg-53" value="&lt;font face=&quot;Times New Roman&quot; style=&quot;font-size: 20px;&quot;&gt;sex&lt;/font&gt;" style="ellipse;whiteSpace=wrap;html=1;align=center;" vertex="1" parent="1">
          <mxGeometry x="680" y="570" width="120" height="60" as="geometry" />
        </mxCell>
        <mxCell id="fwJii2BHvyb1H4AOAWzg-68" style="edgeStyle=orthogonalEdgeStyle;rounded=0;orthogonalLoop=1;jettySize=auto;html=1;exitX=1;exitY=0.5;exitDx=0;exitDy=0;endArrow=none;endFill=0;entryX=0.25;entryY=0;entryDx=0;entryDy=0;" edge="1" parent="1" source="fwJii2BHvyb1H4AOAWzg-54" target="fwJii2BHvyb1H4AOAWzg-7">
          <mxGeometry relative="1" as="geometry">
            <mxPoint x="1060" y="680" as="targetPoint" />
            <Array as="points">
              <mxPoint x="1000" y="500" />
              <mxPoint x="1000" y="660" />
              <mxPoint x="1090" y="660" />
            </Array>
          </mxGeometry>
        </mxCell>
        <mxCell id="fwJii2BHvyb1H4AOAWzg-54" value="&lt;font face=&quot;Times New Roman&quot; style=&quot;font-size: 20px;&quot;&gt;face&lt;/font&gt;" style="ellipse;whiteSpace=wrap;html=1;align=center;" vertex="1" parent="1">
          <mxGeometry x="840" y="470" width="120" height="60" as="geometry" />
        </mxCell>
        <mxCell id="fwJii2BHvyb1H4AOAWzg-74" style="edgeStyle=orthogonalEdgeStyle;rounded=0;orthogonalLoop=1;jettySize=auto;html=1;entryX=0.75;entryY=0;entryDx=0;entryDy=0;endArrow=none;endFill=0;exitX=0.5;exitY=1;exitDx=0;exitDy=0;" edge="1" parent="1" source="fwJii2BHvyb1H4AOAWzg-55" target="fwJii2BHvyb1H4AOAWzg-7">
          <mxGeometry relative="1" as="geometry">
            <Array as="points">
              <mxPoint x="1540" y="660" />
              <mxPoint x="1190" y="660" />
            </Array>
          </mxGeometry>
        </mxCell>
        <mxCell id="fwJii2BHvyb1H4AOAWzg-55" value="&lt;font face=&quot;Times New Roman&quot; style=&quot;font-size: 20px;&quot;&gt;persign&lt;br&gt;&lt;/font&gt;" style="ellipse;whiteSpace=wrap;html=1;align=center;" vertex="1" parent="1">
          <mxGeometry x="1480" y="570" width="120" height="60" as="geometry" />
        </mxCell>
        <mxCell id="fwJii2BHvyb1H4AOAWzg-73" style="edgeStyle=orthogonalEdgeStyle;rounded=0;orthogonalLoop=1;jettySize=auto;html=1;entryX=0.75;entryY=0;entryDx=0;entryDy=0;endArrow=none;endFill=0;exitX=0.5;exitY=1;exitDx=0;exitDy=0;" edge="1" parent="1" source="fwJii2BHvyb1H4AOAWzg-56" target="fwJii2BHvyb1H4AOAWzg-7">
          <mxGeometry relative="1" as="geometry">
            <Array as="points">
              <mxPoint x="1380" y="660" />
              <mxPoint x="1190" y="660" />
            </Array>
          </mxGeometry>
        </mxCell>
        <mxCell id="fwJii2BHvyb1H4AOAWzg-56" value="&lt;font face=&quot;Times New Roman&quot; style=&quot;font-size: 20px;&quot;&gt;level&lt;br&gt;&lt;/font&gt;" style="ellipse;whiteSpace=wrap;html=1;align=center;" vertex="1" parent="1">
          <mxGeometry x="1320" y="570" width="120" height="60" as="geometry" />
        </mxCell>
        <mxCell id="fwJii2BHvyb1H4AOAWzg-75" style="edgeStyle=orthogonalEdgeStyle;rounded=0;orthogonalLoop=1;jettySize=auto;html=1;endArrow=none;endFill=0;" edge="1" parent="1" source="fwJii2BHvyb1H4AOAWzg-57">
          <mxGeometry relative="1" as="geometry">
            <mxPoint x="1190" y="679.9999999999998" as="targetPoint" />
            <Array as="points">
              <mxPoint x="1460" y="500" />
              <mxPoint x="1460" y="660" />
              <mxPoint x="1190" y="660" />
            </Array>
          </mxGeometry>
        </mxCell>
        <mxCell id="fwJii2BHvyb1H4AOAWzg-57" value="&lt;font face=&quot;Times New Roman&quot; style=&quot;font-size: 20px;&quot;&gt;official&lt;br&gt;&lt;/font&gt;" style="ellipse;whiteSpace=wrap;html=1;align=center;" vertex="1" parent="1">
          <mxGeometry x="1480" y="470" width="120" height="60" as="geometry" />
        </mxCell>
        <mxCell id="fwJii2BHvyb1H4AOAWzg-78" style="edgeStyle=orthogonalEdgeStyle;rounded=0;orthogonalLoop=1;jettySize=auto;html=1;entryX=0.75;entryY=0;entryDx=0;entryDy=0;endArrow=none;endFill=0;exitX=0;exitY=0.5;exitDx=0;exitDy=0;" edge="1" parent="1" source="fwJii2BHvyb1H4AOAWzg-58" target="fwJii2BHvyb1H4AOAWzg-7">
          <mxGeometry relative="1" as="geometry">
            <Array as="points">
              <mxPoint x="1280" y="500" />
              <mxPoint x="1280" y="660" />
              <mxPoint x="1190" y="660" />
            </Array>
          </mxGeometry>
        </mxCell>
        <mxCell id="fwJii2BHvyb1H4AOAWzg-58" value="&lt;font face=&quot;Times New Roman&quot; style=&quot;font-size: 20px;&quot;&gt;notice&lt;br&gt;&lt;/font&gt;" style="ellipse;whiteSpace=wrap;html=1;align=center;" vertex="1" parent="1">
          <mxGeometry x="1320" y="470" width="120" height="60" as="geometry" />
        </mxCell>
        <mxCell id="fwJii2BHvyb1H4AOAWzg-89" style="rounded=0;orthogonalLoop=1;jettySize=auto;html=1;entryX=0;entryY=0;entryDx=0;entryDy=0;endArrow=none;endFill=0;" edge="1" parent="1" source="fwJii2BHvyb1H4AOAWzg-79" target="fwJii2BHvyb1H4AOAWzg-3">
          <mxGeometry relative="1" as="geometry" />
        </mxCell>
        <mxCell id="fwJii2BHvyb1H4AOAWzg-79" value="&lt;font face=&quot;Times New Roman&quot; style=&quot;font-size: 20px;&quot;&gt;UID&lt;/font&gt;" style="ellipse;whiteSpace=wrap;html=1;align=center;fontStyle=4;" vertex="1" parent="1">
          <mxGeometry x="680" y="350" width="120" height="60" as="geometry" />
        </mxCell>
        <mxCell id="fwJii2BHvyb1H4AOAWzg-88" style="rounded=0;orthogonalLoop=1;jettySize=auto;html=1;entryX=0.205;entryY=-0.011;entryDx=0;entryDy=0;endArrow=none;endFill=0;entryPerimeter=0;" edge="1" parent="1" source="fwJii2BHvyb1H4AOAWzg-80" target="fwJii2BHvyb1H4AOAWzg-3">
          <mxGeometry relative="1" as="geometry" />
        </mxCell>
        <mxCell id="fwJii2BHvyb1H4AOAWzg-80" value="&lt;font face=&quot;Times New Roman&quot;&gt;&lt;span style=&quot;font-size: 20px;&quot;&gt;following&lt;br&gt;&lt;/span&gt;&lt;/font&gt;" style="ellipse;whiteSpace=wrap;html=1;align=center;" vertex="1" parent="1">
          <mxGeometry x="840" y="350" width="120" height="60" as="geometry" />
        </mxCell>
        <mxCell id="fwJii2BHvyb1H4AOAWzg-90" style="rounded=0;orthogonalLoop=1;jettySize=auto;html=1;endArrow=none;endFill=0;entryX=0.414;entryY=0.017;entryDx=0;entryDy=0;entryPerimeter=0;" edge="1" parent="1" source="fwJii2BHvyb1H4AOAWzg-81" target="fwJii2BHvyb1H4AOAWzg-3">
          <mxGeometry relative="1" as="geometry">
            <mxPoint x="1120" y="440" as="targetPoint" />
          </mxGeometry>
        </mxCell>
        <mxCell id="fwJii2BHvyb1H4AOAWzg-81" value="&lt;font face=&quot;Times New Roman&quot;&gt;&lt;span style=&quot;font-size: 20px;&quot;&gt;follower&lt;br&gt;&lt;/span&gt;&lt;/font&gt;" style="ellipse;whiteSpace=wrap;html=1;align=center;" vertex="1" parent="1">
          <mxGeometry x="1000" y="350" width="120" height="60" as="geometry" />
        </mxCell>
        <mxCell id="fwJii2BHvyb1H4AOAWzg-91" style="rounded=0;orthogonalLoop=1;jettySize=auto;html=1;entryX=0.6;entryY=-0.026;entryDx=0;entryDy=0;entryPerimeter=0;endArrow=none;endFill=0;" edge="1" parent="1" source="fwJii2BHvyb1H4AOAWzg-83" target="fwJii2BHvyb1H4AOAWzg-3">
          <mxGeometry relative="1" as="geometry" />
        </mxCell>
        <mxCell id="fwJii2BHvyb1H4AOAWzg-83" value="&lt;font face=&quot;Times New Roman&quot;&gt;&lt;span style=&quot;font-size: 20px;&quot;&gt;archive&lt;br&gt;&lt;/span&gt;&lt;/font&gt;" style="ellipse;whiteSpace=wrap;html=1;align=center;" vertex="1" parent="1">
          <mxGeometry x="1160" y="350" width="120" height="60" as="geometry" />
        </mxCell>
        <mxCell id="fwJii2BHvyb1H4AOAWzg-92" style="rounded=0;orthogonalLoop=1;jettySize=auto;html=1;endArrow=none;endFill=0;entryX=0.79;entryY=0.001;entryDx=0;entryDy=0;entryPerimeter=0;" edge="1" parent="1" source="fwJii2BHvyb1H4AOAWzg-84" target="fwJii2BHvyb1H4AOAWzg-3">
          <mxGeometry relative="1" as="geometry">
            <mxPoint x="1200" y="440" as="targetPoint" />
          </mxGeometry>
        </mxCell>
        <mxCell id="fwJii2BHvyb1H4AOAWzg-84" value="&lt;font face=&quot;Times New Roman&quot;&gt;&lt;span style=&quot;font-size: 20px;&quot;&gt;arcticle&lt;br&gt;&lt;/span&gt;&lt;/font&gt;" style="ellipse;whiteSpace=wrap;html=1;align=center;" vertex="1" parent="1">
          <mxGeometry x="1320" y="350" width="120" height="60" as="geometry" />
        </mxCell>
        <mxCell id="fwJii2BHvyb1H4AOAWzg-93" style="rounded=0;orthogonalLoop=1;jettySize=auto;html=1;entryX=1;entryY=0;entryDx=0;entryDy=0;endArrow=none;endFill=0;" edge="1" parent="1" source="fwJii2BHvyb1H4AOAWzg-85" target="fwJii2BHvyb1H4AOAWzg-3">
          <mxGeometry relative="1" as="geometry" />
        </mxCell>
        <mxCell id="fwJii2BHvyb1H4AOAWzg-85" value="&lt;font face=&quot;Times New Roman&quot;&gt;&lt;span style=&quot;font-size: 20px;&quot;&gt;likes&lt;br&gt;&lt;/span&gt;&lt;/font&gt;" style="ellipse;whiteSpace=wrap;html=1;align=center;" vertex="1" parent="1">
          <mxGeometry x="1480" y="350" width="120" height="60" as="geometry" />
        </mxCell>
        <mxCell id="fwJii2BHvyb1H4AOAWzg-102" style="rounded=0;orthogonalLoop=1;jettySize=auto;html=1;entryX=1;entryY=0;entryDx=0;entryDy=0;endArrow=none;endFill=0;" edge="1" parent="1" source="fwJii2BHvyb1H4AOAWzg-95" target="fwJii2BHvyb1H4AOAWzg-16">
          <mxGeometry relative="1" as="geometry" />
        </mxCell>
        <mxCell id="fwJii2BHvyb1H4AOAWzg-95" value="&lt;font face=&quot;Times New Roman&quot; style=&quot;font-size: 20px;&quot;&gt;RPID&lt;/font&gt;" style="ellipse;whiteSpace=wrap;html=1;align=center;fontStyle=4;" vertex="1" parent="1">
          <mxGeometry x="1520" y="710" width="120" height="56" as="geometry" />
        </mxCell>
        <mxCell id="fwJii2BHvyb1H4AOAWzg-104" style="rounded=0;orthogonalLoop=1;jettySize=auto;html=1;entryX=1;entryY=1;entryDx=0;entryDy=0;endArrow=none;endFill=0;" edge="1" parent="1" source="fwJii2BHvyb1H4AOAWzg-96" target="fwJii2BHvyb1H4AOAWzg-16">
          <mxGeometry relative="1" as="geometry" />
        </mxCell>
        <mxCell id="fwJii2BHvyb1H4AOAWzg-96" value="&lt;font face=&quot;Times New Roman&quot; style=&quot;font-size: 20px;&quot;&gt;reply_time&lt;br&gt;&lt;/font&gt;" style="ellipse;whiteSpace=wrap;html=1;align=center;" vertex="1" parent="1">
          <mxGeometry x="1520" y="900" width="120" height="56" as="geometry" />
        </mxCell>
        <mxCell id="fwJii2BHvyb1H4AOAWzg-185" style="rounded=0;orthogonalLoop=1;jettySize=auto;html=1;entryX=0;entryY=1;entryDx=0;entryDy=0;endArrow=none;endFill=0;" edge="1" parent="1" source="fwJii2BHvyb1H4AOAWzg-97" target="fwJii2BHvyb1H4AOAWzg-16">
          <mxGeometry relative="1" as="geometry" />
        </mxCell>
        <mxCell id="fwJii2BHvyb1H4AOAWzg-97" value="&lt;font face=&quot;Times New Roman&quot; style=&quot;font-size: 20px;&quot;&gt;AID&lt;br&gt;&lt;/font&gt;" style="ellipse;whiteSpace=wrap;html=1;align=center;" vertex="1" parent="1">
          <mxGeometry x="1320" y="863" width="120" height="56" as="geometry" />
        </mxCell>
        <mxCell id="fwJii2BHvyb1H4AOAWzg-186" style="rounded=0;orthogonalLoop=1;jettySize=auto;html=1;entryX=0;entryY=0;entryDx=0;entryDy=0;endArrow=none;endFill=0;" edge="1" parent="1" source="fwJii2BHvyb1H4AOAWzg-98" target="fwJii2BHvyb1H4AOAWzg-16">
          <mxGeometry relative="1" as="geometry" />
        </mxCell>
        <mxCell id="fwJii2BHvyb1H4AOAWzg-98" value="&lt;font face=&quot;Times New Roman&quot; style=&quot;font-size: 20px;&quot;&gt;UID&lt;br&gt;&lt;/font&gt;" style="ellipse;whiteSpace=wrap;html=1;align=center;" vertex="1" parent="1">
          <mxGeometry x="1320" y="760" width="120" height="56" as="geometry" />
        </mxCell>
        <mxCell id="fwJii2BHvyb1H4AOAWzg-107" style="rounded=0;orthogonalLoop=1;jettySize=auto;html=1;endArrow=none;endFill=0;entryX=1;entryY=1;entryDx=0;entryDy=0;" edge="1" parent="1" source="fwJii2BHvyb1H4AOAWzg-99" target="fwJii2BHvyb1H4AOAWzg-16">
          <mxGeometry relative="1" as="geometry">
            <mxPoint x="1600" y="839.9999999999998" as="targetPoint" />
          </mxGeometry>
        </mxCell>
        <mxCell id="fwJii2BHvyb1H4AOAWzg-99" value="&lt;font face=&quot;Times New Roman&quot; style=&quot;font-size: 20px;&quot;&gt;reply_count&lt;br&gt;&lt;/font&gt;" style="ellipse;whiteSpace=wrap;html=1;align=center;" vertex="1" parent="1">
          <mxGeometry x="1680" y="860" width="120" height="56" as="geometry" />
        </mxCell>
        <mxCell id="fwJii2BHvyb1H4AOAWzg-106" style="rounded=0;orthogonalLoop=1;jettySize=auto;html=1;endArrow=none;endFill=0;entryX=1;entryY=0;entryDx=0;entryDy=0;" edge="1" parent="1" source="fwJii2BHvyb1H4AOAWzg-100" target="fwJii2BHvyb1H4AOAWzg-16">
          <mxGeometry relative="1" as="geometry" />
        </mxCell>
        <mxCell id="fwJii2BHvyb1H4AOAWzg-100" value="&lt;font face=&quot;Times New Roman&quot; style=&quot;font-size: 20px;&quot;&gt;likes&lt;br&gt;&lt;/font&gt;" style="ellipse;whiteSpace=wrap;html=1;align=center;" vertex="1" parent="1">
          <mxGeometry x="1680" y="760" width="120" height="56" as="geometry" />
        </mxCell>
        <mxCell id="fwJii2BHvyb1H4AOAWzg-108" style="rounded=0;orthogonalLoop=1;jettySize=auto;html=1;endArrow=none;endFill=0;" edge="1" parent="1" source="fwJii2BHvyb1H4AOAWzg-101">
          <mxGeometry relative="1" as="geometry">
            <mxPoint x="1600" y="838" as="targetPoint" />
          </mxGeometry>
        </mxCell>
        <mxCell id="fwJii2BHvyb1H4AOAWzg-101" value="&lt;font face=&quot;Times New Roman&quot; style=&quot;font-size: 20px;&quot;&gt;message&lt;br&gt;&lt;/font&gt;" style="ellipse;whiteSpace=wrap;html=1;align=center;" vertex="1" parent="1">
          <mxGeometry x="1840" y="810" width="120" height="56" as="geometry" />
        </mxCell>
        <mxCell id="fwJii2BHvyb1H4AOAWzg-183" style="rounded=0;orthogonalLoop=1;jettySize=auto;html=1;entryX=1;entryY=0;entryDx=0;entryDy=0;endArrow=none;endFill=0;" edge="1" parent="1" source="fwJii2BHvyb1H4AOAWzg-109" target="fwJii2BHvyb1H4AOAWzg-15">
          <mxGeometry relative="1" as="geometry" />
        </mxCell>
        <mxCell id="fwJii2BHvyb1H4AOAWzg-109" value="&lt;font face=&quot;Times New Roman&quot; style=&quot;font-size: 20px;&quot;&gt;UID&lt;/font&gt;" style="ellipse;whiteSpace=wrap;html=1;align=center;fontStyle=4;" vertex="1" parent="1">
          <mxGeometry x="1080" y="760" width="120" height="60" as="geometry" />
        </mxCell>
        <mxCell id="fwJii2BHvyb1H4AOAWzg-182" style="rounded=0;orthogonalLoop=1;jettySize=auto;html=1;endArrow=none;endFill=0;entryX=1;entryY=1;entryDx=0;entryDy=0;" edge="1" parent="1" source="fwJii2BHvyb1H4AOAWzg-111" target="fwJii2BHvyb1H4AOAWzg-15">
          <mxGeometry relative="1" as="geometry">
            <mxPoint x="1063" y="850" as="targetPoint" />
          </mxGeometry>
        </mxCell>
        <mxCell id="fwJii2BHvyb1H4AOAWzg-111" value="&lt;font face=&quot;Times New Roman&quot; style=&quot;font-size: 20px;&quot;&gt;AID&lt;/font&gt;" style="ellipse;whiteSpace=wrap;html=1;align=center;fontStyle=4;" vertex="1" parent="1">
          <mxGeometry x="1080" y="860" width="120" height="60" as="geometry" />
        </mxCell>
        <mxCell id="fwJii2BHvyb1H4AOAWzg-181" style="rounded=0;orthogonalLoop=1;jettySize=auto;html=1;entryX=0;entryY=0;entryDx=0;entryDy=0;endArrow=none;endFill=0;" edge="1" parent="1" source="fwJii2BHvyb1H4AOAWzg-113" target="fwJii2BHvyb1H4AOAWzg-15">
          <mxGeometry relative="1" as="geometry" />
        </mxCell>
        <mxCell id="fwJii2BHvyb1H4AOAWzg-113" value="&lt;font face=&quot;Times New Roman&quot; style=&quot;font-size: 20px;&quot;&gt;prompot&lt;br&gt;&lt;/font&gt;" style="ellipse;whiteSpace=wrap;html=1;align=center;" vertex="1" parent="1">
          <mxGeometry x="840" y="760" width="120" height="60" as="geometry" />
        </mxCell>
        <mxCell id="fwJii2BHvyb1H4AOAWzg-124" style="edgeStyle=orthogonalEdgeStyle;rounded=0;orthogonalLoop=1;jettySize=auto;html=1;entryX=0;entryY=0.5;entryDx=0;entryDy=0;endArrow=none;endFill=0;" edge="1" parent="1" source="fwJii2BHvyb1H4AOAWzg-119" target="fwJii2BHvyb1H4AOAWzg-7">
          <mxGeometry relative="1" as="geometry">
            <Array as="points">
              <mxPoint x="780" y="710" />
            </Array>
          </mxGeometry>
        </mxCell>
        <mxCell id="fwJii2BHvyb1H4AOAWzg-125" style="edgeStyle=orthogonalEdgeStyle;rounded=0;orthogonalLoop=1;jettySize=auto;html=1;entryX=0;entryY=0.5;entryDx=0;entryDy=0;endArrow=none;endFill=0;" edge="1" parent="1" source="fwJii2BHvyb1H4AOAWzg-119" target="fwJii2BHvyb1H4AOAWzg-14">
          <mxGeometry relative="1" as="geometry">
            <Array as="points">
              <mxPoint x="780" y="970" />
            </Array>
          </mxGeometry>
        </mxCell>
        <mxCell id="fwJii2BHvyb1H4AOAWzg-119" value="&lt;font style=&quot;font-size: 20px;&quot; face=&quot;Times New Roman&quot;&gt;danmaku&lt;/font&gt;" style="shape=rhombus;perimeter=rhombusPerimeter;whiteSpace=wrap;html=1;align=center;" vertex="1" parent="1">
          <mxGeometry x="680" y="810" width="200" height="60" as="geometry" />
        </mxCell>
        <mxCell id="fwJii2BHvyb1H4AOAWzg-138" value="" style="edgeStyle=orthogonalEdgeStyle;rounded=0;orthogonalLoop=1;jettySize=auto;html=1;endArrow=none;endFill=0;" edge="1" parent="1" source="fwJii2BHvyb1H4AOAWzg-134" target="fwJii2BHvyb1H4AOAWzg-119">
          <mxGeometry relative="1" as="geometry" />
        </mxCell>
        <mxCell id="fwJii2BHvyb1H4AOAWzg-134" value="&lt;font face=&quot;Times New Roman&quot; style=&quot;font-size: 20px;&quot;&gt;have&lt;/font&gt;" style="shape=rhombus;double=1;perimeter=rhombusPerimeter;whiteSpace=wrap;html=1;align=center;" vertex="1" parent="1">
          <mxGeometry x="440" y="810" width="200" height="60" as="geometry" />
        </mxCell>
        <mxCell id="fwJii2BHvyb1H4AOAWzg-140" value="" style="edgeStyle=orthogonalEdgeStyle;rounded=0;orthogonalLoop=1;jettySize=auto;html=1;endArrow=none;endFill=0;shape=link;" edge="1" parent="1" source="fwJii2BHvyb1H4AOAWzg-139" target="fwJii2BHvyb1H4AOAWzg-134">
          <mxGeometry relative="1" as="geometry" />
        </mxCell>
        <mxCell id="fwJii2BHvyb1H4AOAWzg-139" value="&lt;font face=&quot;Times New Roman&quot; style=&quot;font-size: 20px;&quot;&gt;danmaku_mode&lt;/font&gt;" style="shape=ext;margin=3;double=1;whiteSpace=wrap;html=1;align=center;" vertex="1" parent="1">
          <mxGeometry x="440" y="900" width="200" height="60" as="geometry" />
        </mxCell>
        <mxCell id="fwJii2BHvyb1H4AOAWzg-237" value="" style="rounded=0;orthogonalLoop=1;jettySize=auto;html=1;endArrow=none;endFill=0;" edge="1" parent="1" source="fwJii2BHvyb1H4AOAWzg-142" target="fwJii2BHvyb1H4AOAWzg-139">
          <mxGeometry relative="1" as="geometry" />
        </mxCell>
        <mxCell id="fwJii2BHvyb1H4AOAWzg-142" value="&lt;font face=&quot;Times New Roman&quot; style=&quot;font-size: 20px;&quot;&gt;name&lt;/font&gt;" style="ellipse;whiteSpace=wrap;html=1;align=center;" vertex="1" parent="1">
          <mxGeometry x="450" y="1000" width="120" height="60" as="geometry" />
        </mxCell>
        <mxCell id="fwJii2BHvyb1H4AOAWzg-196" style="rounded=0;orthogonalLoop=1;jettySize=auto;html=1;entryX=0;entryY=1;entryDx=0;entryDy=0;endArrow=none;endFill=0;" edge="1" parent="1" source="fwJii2BHvyb1H4AOAWzg-143" target="fwJii2BHvyb1H4AOAWzg-139">
          <mxGeometry relative="1" as="geometry" />
        </mxCell>
        <mxCell id="fwJii2BHvyb1H4AOAWzg-143" value="&lt;font face=&quot;Times New Roman&quot; style=&quot;font-size: 20px;&quot;&gt;prompt&lt;/font&gt;" style="ellipse;whiteSpace=wrap;html=1;align=center;" vertex="1" parent="1">
          <mxGeometry x="310" y="960" width="120" height="60" as="geometry" />
        </mxCell>
        <mxCell id="fwJii2BHvyb1H4AOAWzg-175" style="rounded=0;orthogonalLoop=1;jettySize=auto;html=1;entryX=1;entryY=1;entryDx=0;entryDy=0;endArrow=none;endFill=0;" edge="1" parent="1" source="fwJii2BHvyb1H4AOAWzg-148" target="fwJii2BHvyb1H4AOAWzg-119">
          <mxGeometry relative="1" as="geometry" />
        </mxCell>
        <mxCell id="fwJii2BHvyb1H4AOAWzg-148" value="&lt;font face=&quot;Times New Roman&quot; style=&quot;font-size: 20px;&quot;&gt;DID&lt;/font&gt;" style="ellipse;whiteSpace=wrap;html=1;align=center;fontStyle=4;" vertex="1" parent="1">
          <mxGeometry x="840" y="860" width="120" height="60" as="geometry" />
        </mxCell>
        <mxCell id="fwJii2BHvyb1H4AOAWzg-179" value="" style="rounded=0;orthogonalLoop=1;jettySize=auto;html=1;entryX=0;entryY=1;entryDx=0;entryDy=0;endArrow=none;endFill=0;" edge="1" parent="1" source="fwJii2BHvyb1H4AOAWzg-150" target="fwJii2BHvyb1H4AOAWzg-119">
          <mxGeometry relative="1" as="geometry" />
        </mxCell>
        <mxCell id="fwJii2BHvyb1H4AOAWzg-150" value="&lt;font face=&quot;Times New Roman&quot; style=&quot;font-size: 20px;&quot;&gt;AID&lt;/font&gt;" style="ellipse;whiteSpace=wrap;html=1;align=center;" vertex="1" parent="1">
          <mxGeometry x="650" y="900" width="120" height="60" as="geometry" />
        </mxCell>
        <mxCell id="fwJii2BHvyb1H4AOAWzg-159" style="rounded=0;orthogonalLoop=1;jettySize=auto;html=1;endArrow=none;endFill=0;entryX=0;entryY=0;entryDx=0;entryDy=0;" edge="1" parent="1" source="fwJii2BHvyb1H4AOAWzg-151" target="fwJii2BHvyb1H4AOAWzg-119">
          <mxGeometry relative="1" as="geometry">
            <mxPoint x="730" y="840" as="targetPoint" />
          </mxGeometry>
        </mxCell>
        <mxCell id="fwJii2BHvyb1H4AOAWzg-151" value="&lt;font face=&quot;Times New Roman&quot; style=&quot;font-size: 20px;&quot;&gt;content&lt;/font&gt;" style="ellipse;whiteSpace=wrap;html=1;align=center;" vertex="1" parent="1">
          <mxGeometry x="320" y="670" width="120" height="60" as="geometry" />
        </mxCell>
        <mxCell id="fwJii2BHvyb1H4AOAWzg-157" style="rounded=0;orthogonalLoop=1;jettySize=auto;html=1;entryX=0;entryY=0;entryDx=0;entryDy=0;endArrow=none;endFill=0;" edge="1" parent="1" source="fwJii2BHvyb1H4AOAWzg-152" target="fwJii2BHvyb1H4AOAWzg-119">
          <mxGeometry relative="1" as="geometry" />
        </mxCell>
        <mxCell id="fwJii2BHvyb1H4AOAWzg-152" value="&lt;font face=&quot;Times New Roman&quot;&gt;&lt;span style=&quot;font-size: 20px;&quot;&gt;UID&lt;/span&gt;&lt;/font&gt;" style="ellipse;whiteSpace=wrap;html=1;align=center;" vertex="1" parent="1">
          <mxGeometry x="640" y="670" width="120" height="60" as="geometry" />
        </mxCell>
        <mxCell id="fwJii2BHvyb1H4AOAWzg-178" style="rounded=0;orthogonalLoop=1;jettySize=auto;html=1;endArrow=none;endFill=0;entryX=0;entryY=0;entryDx=0;entryDy=0;" edge="1" parent="1" source="fwJii2BHvyb1H4AOAWzg-153" target="fwJii2BHvyb1H4AOAWzg-119">
          <mxGeometry relative="1" as="geometry">
            <mxPoint x="730" y="830" as="targetPoint" />
          </mxGeometry>
        </mxCell>
        <mxCell id="fwJii2BHvyb1H4AOAWzg-153" value="&lt;font face=&quot;Times New Roman&quot; style=&quot;font-size: 20px;&quot;&gt;dm_time&lt;/font&gt;" style="ellipse;whiteSpace=wrap;html=1;align=center;" vertex="1" parent="1">
          <mxGeometry x="480" y="670" width="120" height="60" as="geometry" />
        </mxCell>
        <mxCell id="fwJii2BHvyb1H4AOAWzg-177" style="rounded=0;orthogonalLoop=1;jettySize=auto;html=1;entryX=0;entryY=0;entryDx=0;entryDy=0;endArrow=none;endFill=0;" edge="1" parent="1" source="fwJii2BHvyb1H4AOAWzg-155" target="fwJii2BHvyb1H4AOAWzg-119">
          <mxGeometry relative="1" as="geometry" />
        </mxCell>
        <mxCell id="fwJii2BHvyb1H4AOAWzg-155" value="&lt;font face=&quot;Times New Roman&quot;&gt;&lt;span style=&quot;font-size: 20px;&quot;&gt;send_time&lt;/span&gt;&lt;/font&gt;" style="ellipse;whiteSpace=wrap;html=1;align=center;" vertex="1" parent="1">
          <mxGeometry x="320" y="750" width="120" height="60" as="geometry" />
        </mxCell>
        <mxCell id="fwJii2BHvyb1H4AOAWzg-195" style="rounded=0;orthogonalLoop=1;jettySize=auto;html=1;entryX=0;entryY=0;entryDx=0;entryDy=0;endArrow=none;endFill=0;" edge="1" parent="1" source="fwJii2BHvyb1H4AOAWzg-156" target="fwJii2BHvyb1H4AOAWzg-139">
          <mxGeometry relative="1" as="geometry" />
        </mxCell>
        <mxCell id="fwJii2BHvyb1H4AOAWzg-156" value="&lt;font face=&quot;Times New Roman&quot; style=&quot;font-size: 20px;&quot;&gt;mode&lt;/font&gt;" style="ellipse;whiteSpace=wrap;html=1;align=center;fontStyle=4;" vertex="1" parent="1">
          <mxGeometry x="280" y="860" width="120" height="60" as="geometry" />
        </mxCell>
        <mxCell id="fwJii2BHvyb1H4AOAWzg-212" value="" style="rounded=0;orthogonalLoop=1;jettySize=auto;html=1;entryX=0.25;entryY=1;entryDx=0;entryDy=0;endArrow=none;endFill=0;" edge="1" parent="1" source="fwJii2BHvyb1H4AOAWzg-166" target="fwJii2BHvyb1H4AOAWzg-46">
          <mxGeometry relative="1" as="geometry" />
        </mxCell>
        <mxCell id="fwJii2BHvyb1H4AOAWzg-166" value="&lt;font face=&quot;Times New Roman&quot;&gt;&lt;span style=&quot;font-size: 20px;&quot;&gt;TID&lt;/span&gt;&lt;/font&gt;" style="ellipse;whiteSpace=wrap;html=1;align=center;fontStyle=4;" vertex="1" parent="1">
          <mxGeometry x="1150" y="1300" width="120" height="60" as="geometry" />
        </mxCell>
        <mxCell id="fwJii2BHvyb1H4AOAWzg-213" style="rounded=0;orthogonalLoop=1;jettySize=auto;html=1;entryX=0.6;entryY=1;entryDx=0;entryDy=0;entryPerimeter=0;endArrow=none;endFill=0;" edge="1" parent="1" source="fwJii2BHvyb1H4AOAWzg-167" target="fwJii2BHvyb1H4AOAWzg-46">
          <mxGeometry relative="1" as="geometry" />
        </mxCell>
        <mxCell id="fwJii2BHvyb1H4AOAWzg-167" value="&lt;font face=&quot;Times New Roman&quot;&gt;&lt;span style=&quot;font-size: 20px;&quot;&gt;zone_name&lt;/span&gt;&lt;/font&gt;" style="ellipse;whiteSpace=wrap;html=1;align=center;" vertex="1" parent="1">
          <mxGeometry x="1320" y="1300" width="120" height="60" as="geometry" />
        </mxCell>
        <mxCell id="fwJii2BHvyb1H4AOAWzg-215" style="rounded=0;orthogonalLoop=1;jettySize=auto;html=1;entryX=1;entryY=0.5;entryDx=0;entryDy=0;endArrow=none;endFill=0;" edge="1" parent="1" source="fwJii2BHvyb1H4AOAWzg-168" target="fwJii2BHvyb1H4AOAWzg-46">
          <mxGeometry relative="1" as="geometry" />
        </mxCell>
        <mxCell id="fwJii2BHvyb1H4AOAWzg-168" value="&lt;font face=&quot;Times New Roman&quot;&gt;&lt;span style=&quot;font-size: 20px;&quot;&gt;route&lt;/span&gt;&lt;/font&gt;" style="ellipse;whiteSpace=wrap;html=1;align=center;" vertex="1" parent="1">
          <mxGeometry x="1480" y="1220" width="120" height="60" as="geometry" />
        </mxCell>
        <mxCell id="fwJii2BHvyb1H4AOAWzg-214" style="rounded=0;orthogonalLoop=1;jettySize=auto;html=1;entryX=1;entryY=1;entryDx=0;entryDy=0;endArrow=none;endFill=0;" edge="1" parent="1" source="fwJii2BHvyb1H4AOAWzg-169" target="fwJii2BHvyb1H4AOAWzg-46">
          <mxGeometry relative="1" as="geometry" />
        </mxCell>
        <mxCell id="fwJii2BHvyb1H4AOAWzg-169" value="&lt;font face=&quot;Times New Roman&quot;&gt;&lt;span style=&quot;font-size: 20px;&quot;&gt;zone_url&lt;/span&gt;&lt;/font&gt;" style="ellipse;whiteSpace=wrap;html=1;align=center;" vertex="1" parent="1">
          <mxGeometry x="1480" y="1300" width="120" height="60" as="geometry" />
        </mxCell>
        <mxCell id="fwJii2BHvyb1H4AOAWzg-211" style="edgeStyle=orthogonalEdgeStyle;rounded=0;orthogonalLoop=1;jettySize=auto;html=1;endArrow=none;endFill=0;" edge="1" parent="1" source="fwJii2BHvyb1H4AOAWzg-187">
          <mxGeometry relative="1" as="geometry">
            <mxPoint x="1540" y="1019.9999999999998" as="targetPoint" />
          </mxGeometry>
        </mxCell>
        <mxCell id="fwJii2BHvyb1H4AOAWzg-187" value="&lt;font face=&quot;Times New Roman&quot; style=&quot;font-size: 20px;&quot;&gt;pic_url&lt;br&gt;&lt;/font&gt;" style="ellipse;whiteSpace=wrap;html=1;align=center;" vertex="1" parent="1">
          <mxGeometry x="1560" y="1139" width="120" height="60" as="geometry" />
        </mxCell>
        <mxCell id="fwJii2BHvyb1H4AOAWzg-210" style="edgeStyle=orthogonalEdgeStyle;rounded=0;orthogonalLoop=1;jettySize=auto;html=1;endArrow=none;endFill=0;" edge="1" parent="1" source="fwJii2BHvyb1H4AOAWzg-188">
          <mxGeometry relative="1" as="geometry">
            <mxPoint x="1380" y="1019.9999999999998" as="targetPoint" />
          </mxGeometry>
        </mxCell>
        <mxCell id="fwJii2BHvyb1H4AOAWzg-188" value="&lt;font face=&quot;Times New Roman&quot; style=&quot;font-size: 20px;&quot;&gt;title&lt;br&gt;&lt;/font&gt;" style="ellipse;whiteSpace=wrap;html=1;align=center;" vertex="1" parent="1">
          <mxGeometry x="1400" y="1139" width="120" height="60" as="geometry" />
        </mxCell>
        <mxCell id="fwJii2BHvyb1H4AOAWzg-209" style="edgeStyle=orthogonalEdgeStyle;rounded=0;orthogonalLoop=1;jettySize=auto;html=1;endArrow=none;endFill=0;" edge="1" parent="1" source="fwJii2BHvyb1H4AOAWzg-189">
          <mxGeometry relative="1" as="geometry">
            <mxPoint x="1460" y="1019.9999999999998" as="targetPoint" />
            <Array as="points">
              <mxPoint x="1620" y="1020" />
            </Array>
          </mxGeometry>
        </mxCell>
        <mxCell id="fwJii2BHvyb1H4AOAWzg-189" value="&lt;font face=&quot;Times New Roman&quot; style=&quot;font-size: 20px;&quot;&gt;introduction&lt;br&gt;&lt;/font&gt;" style="ellipse;whiteSpace=wrap;html=1;align=center;" vertex="1" parent="1">
          <mxGeometry x="1560" y="1040" width="120" height="60" as="geometry" />
        </mxCell>
        <mxCell id="fwJii2BHvyb1H4AOAWzg-208" style="edgeStyle=orthogonalEdgeStyle;rounded=0;orthogonalLoop=1;jettySize=auto;html=1;entryX=0.8;entryY=1;entryDx=0;entryDy=0;entryPerimeter=0;endArrow=none;endFill=0;" edge="1" parent="1" source="fwJii2BHvyb1H4AOAWzg-190" target="fwJii2BHvyb1H4AOAWzg-14">
          <mxGeometry relative="1" as="geometry">
            <Array as="points">
              <mxPoint x="1460" y="1020" />
              <mxPoint x="1200" y="1020" />
            </Array>
          </mxGeometry>
        </mxCell>
        <mxCell id="fwJii2BHvyb1H4AOAWzg-190" value="&lt;font face=&quot;Times New Roman&quot; style=&quot;font-size: 20px;&quot;&gt;pubtime&lt;br&gt;&lt;/font&gt;" style="ellipse;whiteSpace=wrap;html=1;align=center;" vertex="1" parent="1">
          <mxGeometry x="1400" y="1040" width="120" height="60" as="geometry" />
        </mxCell>
        <mxCell id="fwJii2BHvyb1H4AOAWzg-205" style="edgeStyle=orthogonalEdgeStyle;rounded=0;orthogonalLoop=1;jettySize=auto;html=1;endArrow=none;endFill=0;" edge="1" parent="1" source="fwJii2BHvyb1H4AOAWzg-191">
          <mxGeometry relative="1" as="geometry">
            <mxPoint x="900" y="1019.9999999999998" as="targetPoint" />
          </mxGeometry>
        </mxCell>
        <mxCell id="fwJii2BHvyb1H4AOAWzg-191" value="&lt;font face=&quot;Times New Roman&quot; style=&quot;font-size: 20px;&quot;&gt;UID&lt;br&gt;&lt;/font&gt;" style="ellipse;whiteSpace=wrap;html=1;align=center;" vertex="1" parent="1">
          <mxGeometry x="760" y="1130" width="120" height="60" as="geometry" />
        </mxCell>
        <mxCell id="fwJii2BHvyb1H4AOAWzg-204" style="edgeStyle=orthogonalEdgeStyle;rounded=0;orthogonalLoop=1;jettySize=auto;html=1;endArrow=none;endFill=0;" edge="1" parent="1" source="fwJii2BHvyb1H4AOAWzg-192">
          <mxGeometry relative="1" as="geometry">
            <mxPoint x="740" y="1019.9999999999998" as="targetPoint" />
          </mxGeometry>
        </mxCell>
        <mxCell id="fwJii2BHvyb1H4AOAWzg-192" value="&lt;font face=&quot;Times New Roman&quot; style=&quot;font-size: 20px;&quot;&gt;TID&lt;br&gt;&lt;/font&gt;" style="ellipse;whiteSpace=wrap;html=1;align=center;" vertex="1" parent="1">
          <mxGeometry x="600" y="1130" width="120" height="60" as="geometry" />
        </mxCell>
        <mxCell id="fwJii2BHvyb1H4AOAWzg-200" style="edgeStyle=orthogonalEdgeStyle;rounded=0;orthogonalLoop=1;jettySize=auto;html=1;endArrow=none;endFill=0;" edge="1" parent="1" target="fwJii2BHvyb1H4AOAWzg-14">
          <mxGeometry relative="1" as="geometry">
            <mxPoint x="1080" y="1009.9999999999998" as="targetPoint" />
            <mxPoint x="820" y="1040" as="sourcePoint" />
            <Array as="points">
              <mxPoint x="820" y="1020" />
              <mxPoint x="1080" y="1020" />
            </Array>
          </mxGeometry>
        </mxCell>
        <mxCell id="fwJii2BHvyb1H4AOAWzg-201" style="edgeStyle=orthogonalEdgeStyle;rounded=0;orthogonalLoop=1;jettySize=auto;html=1;endArrow=none;endFill=0;" edge="1" parent="1" source="fwJii2BHvyb1H4AOAWzg-194">
          <mxGeometry relative="1" as="geometry">
            <mxPoint x="820" y="1019.9999999999998" as="targetPoint" />
            <Array as="points">
              <mxPoint x="660" y="1020" />
            </Array>
          </mxGeometry>
        </mxCell>
        <mxCell id="fwJii2BHvyb1H4AOAWzg-194" value="&lt;font face=&quot;Times New Roman&quot; style=&quot;font-size: 20px;&quot;&gt;BVID&lt;br&gt;&lt;/font&gt;" style="ellipse;whiteSpace=wrap;html=1;align=center;" vertex="1" parent="1">
          <mxGeometry x="600" y="1040" width="120" height="60" as="geometry" />
        </mxCell>
        <mxCell id="fwJii2BHvyb1H4AOAWzg-207" value="&lt;font face=&quot;Times New Roman&quot; style=&quot;font-size: 20px;&quot;&gt;AID&lt;/font&gt;" style="ellipse;whiteSpace=wrap;html=1;align=center;fontStyle=4;" vertex="1" parent="1">
          <mxGeometry x="760" y="1040" width="120" height="60" as="geometry" />
        </mxCell>
        <mxCell id="fwJii2BHvyb1H4AOAWzg-224" style="edgeStyle=orthogonalEdgeStyle;rounded=0;orthogonalLoop=1;jettySize=auto;html=1;entryX=0;entryY=0.5;entryDx=0;entryDy=0;endArrow=none;endFill=0;" edge="1" parent="1" source="fwJii2BHvyb1H4AOAWzg-216" target="fwJii2BHvyb1H4AOAWzg-25">
          <mxGeometry relative="1" as="geometry">
            <Array as="points">
              <mxPoint x="580" y="1220" />
            </Array>
          </mxGeometry>
        </mxCell>
        <mxCell id="fwJii2BHvyb1H4AOAWzg-216" value="&lt;font face=&quot;Times New Roman&quot; style=&quot;font-size: 20px;&quot;&gt;AID&lt;/font&gt;" style="ellipse;whiteSpace=wrap;html=1;align=center;fontStyle=4;" vertex="1" parent="1">
          <mxGeometry x="520" y="1280" width="120" height="60" as="geometry" />
        </mxCell>
        <mxCell id="fwJii2BHvyb1H4AOAWzg-225" style="edgeStyle=orthogonalEdgeStyle;rounded=0;orthogonalLoop=1;jettySize=auto;html=1;endArrow=none;endFill=0;" edge="1" parent="1" source="fwJii2BHvyb1H4AOAWzg-217">
          <mxGeometry relative="1" as="geometry">
            <mxPoint x="739.9999999999998" y="1220" as="targetPoint" />
          </mxGeometry>
        </mxCell>
        <mxCell id="fwJii2BHvyb1H4AOAWzg-217" value="&lt;font face=&quot;Times New Roman&quot;&gt;&lt;span style=&quot;font-size: 20px;&quot;&gt;view&lt;br&gt;&lt;/span&gt;&lt;/font&gt;" style="ellipse;whiteSpace=wrap;html=1;align=center;" vertex="1" parent="1">
          <mxGeometry x="680" y="1280" width="120" height="60" as="geometry" />
        </mxCell>
        <mxCell id="fwJii2BHvyb1H4AOAWzg-226" style="edgeStyle=orthogonalEdgeStyle;rounded=0;orthogonalLoop=1;jettySize=auto;html=1;endArrow=none;endFill=0;" edge="1" parent="1" source="fwJii2BHvyb1H4AOAWzg-218">
          <mxGeometry relative="1" as="geometry">
            <mxPoint x="899.9999999999998" y="1220" as="targetPoint" />
          </mxGeometry>
        </mxCell>
        <mxCell id="fwJii2BHvyb1H4AOAWzg-218" value="&lt;font face=&quot;Times New Roman&quot;&gt;&lt;span style=&quot;font-size: 20px;&quot;&gt;danmaku&lt;br&gt;&lt;/span&gt;&lt;/font&gt;" style="ellipse;whiteSpace=wrap;html=1;align=center;" vertex="1" parent="1">
          <mxGeometry x="840" y="1280" width="120" height="60" as="geometry" />
        </mxCell>
        <mxCell id="fwJii2BHvyb1H4AOAWzg-230" style="rounded=0;orthogonalLoop=1;jettySize=auto;html=1;endArrow=none;endFill=0;" edge="1" parent="1" source="fwJii2BHvyb1H4AOAWzg-219">
          <mxGeometry relative="1" as="geometry">
            <mxPoint x="1060" y="1250" as="targetPoint" />
          </mxGeometry>
        </mxCell>
        <mxCell id="fwJii2BHvyb1H4AOAWzg-219" value="&lt;font face=&quot;Times New Roman&quot;&gt;&lt;span style=&quot;font-size: 20px;&quot;&gt;comment&lt;br&gt;&lt;/span&gt;&lt;/font&gt;" style="ellipse;whiteSpace=wrap;html=1;align=center;" vertex="1" parent="1">
          <mxGeometry x="1000" y="1280" width="120" height="60" as="geometry" />
        </mxCell>
        <mxCell id="fwJii2BHvyb1H4AOAWzg-236" style="edgeStyle=orthogonalEdgeStyle;rounded=0;orthogonalLoop=1;jettySize=auto;html=1;entryX=0.3;entryY=1;entryDx=0;entryDy=0;entryPerimeter=0;endArrow=none;endFill=0;" edge="1" parent="1" source="fwJii2BHvyb1H4AOAWzg-220" target="fwJii2BHvyb1H4AOAWzg-25">
          <mxGeometry relative="1" as="geometry">
            <Array as="points">
              <mxPoint x="900" y="1360" />
              <mxPoint x="980" y="1360" />
            </Array>
          </mxGeometry>
        </mxCell>
        <mxCell id="fwJii2BHvyb1H4AOAWzg-220" value="&lt;font face=&quot;Times New Roman&quot;&gt;&lt;span style=&quot;font-size: 20px;&quot;&gt;favorite&lt;br&gt;&lt;/span&gt;&lt;/font&gt;" style="ellipse;whiteSpace=wrap;html=1;align=center;" vertex="1" parent="1">
          <mxGeometry x="840" y="1380" width="120" height="60" as="geometry" />
        </mxCell>
        <mxCell id="fwJii2BHvyb1H4AOAWzg-231" style="edgeStyle=orthogonalEdgeStyle;rounded=0;orthogonalLoop=1;jettySize=auto;html=1;entryX=0.311;entryY=0.983;entryDx=0;entryDy=0;entryPerimeter=0;endArrow=none;endFill=0;" edge="1" parent="1">
          <mxGeometry relative="1" as="geometry">
            <mxPoint x="1057.9999999999998" y="1380" as="sourcePoint" />
            <mxPoint x="980.1999999999998" y="1248.9800000000002" as="targetPoint" />
            <Array as="points">
              <mxPoint x="1058" y="1360" />
              <mxPoint x="980" y="1360" />
            </Array>
          </mxGeometry>
        </mxCell>
        <mxCell id="fwJii2BHvyb1H4AOAWzg-221" value="&lt;font face=&quot;Times New Roman&quot;&gt;&lt;span style=&quot;font-size: 20px;&quot;&gt;likes&lt;br&gt;&lt;/span&gt;&lt;/font&gt;" style="ellipse;whiteSpace=wrap;html=1;align=center;" vertex="1" parent="1">
          <mxGeometry x="1000" y="1380" width="120" height="60" as="geometry" />
        </mxCell>
        <mxCell id="fwJii2BHvyb1H4AOAWzg-227" style="edgeStyle=orthogonalEdgeStyle;rounded=0;orthogonalLoop=1;jettySize=auto;html=1;endArrow=none;endFill=0;" edge="1" parent="1" source="fwJii2BHvyb1H4AOAWzg-222">
          <mxGeometry relative="1" as="geometry">
            <mxPoint x="659.9999999999998" y="1220" as="targetPoint" />
          </mxGeometry>
        </mxCell>
        <mxCell id="fwJii2BHvyb1H4AOAWzg-222" value="&lt;font face=&quot;Times New Roman&quot;&gt;&lt;span style=&quot;font-size: 20px;&quot;&gt;coin&lt;br&gt;&lt;/span&gt;&lt;/font&gt;" style="ellipse;whiteSpace=wrap;html=1;align=center;" vertex="1" parent="1">
          <mxGeometry x="520" y="1380" width="120" height="60" as="geometry" />
        </mxCell>
        <mxCell id="fwJii2BHvyb1H4AOAWzg-228" style="edgeStyle=orthogonalEdgeStyle;rounded=0;orthogonalLoop=1;jettySize=auto;html=1;endArrow=none;endFill=0;" edge="1" parent="1" source="fwJii2BHvyb1H4AOAWzg-223">
          <mxGeometry relative="1" as="geometry">
            <mxPoint x="819.9999999999998" y="1220" as="targetPoint" />
          </mxGeometry>
        </mxCell>
        <mxCell id="fwJii2BHvyb1H4AOAWzg-223" value="&lt;font face=&quot;Times New Roman&quot;&gt;&lt;span style=&quot;font-size: 20px;&quot;&gt;share&lt;br&gt;&lt;/span&gt;&lt;/font&gt;" style="ellipse;whiteSpace=wrap;html=1;align=center;" vertex="1" parent="1">
          <mxGeometry x="680" y="1380" width="120" height="60" as="geometry" />
        </mxCell>
        <mxCell id="fwJii2BHvyb1H4AOAWzg-238" value="&lt;font face=&quot;Times New Roman&quot; style=&quot;font-size: 20px;&quot;&gt;1&lt;/font&gt;" style="text;html=1;align=center;verticalAlign=middle;resizable=0;points=[];autosize=1;strokeColor=none;fillColor=none;" vertex="1" parent="1">
          <mxGeometry x="1233" y="749" width="30" height="40" as="geometry" />
        </mxCell>
        <mxCell id="fwJii2BHvyb1H4AOAWzg-240" value="&lt;font face=&quot;Times New Roman&quot; style=&quot;font-size: 20px;&quot;&gt;N&lt;/font&gt;" style="text;html=1;align=center;verticalAlign=middle;resizable=0;points=[];autosize=1;strokeColor=none;fillColor=none;" vertex="1" parent="1">
          <mxGeometry x="1229" y="893" width="40" height="40" as="geometry" />
        </mxCell>
        <mxCell id="fwJii2BHvyb1H4AOAWzg-241" value="&lt;font face=&quot;Times New Roman&quot; style=&quot;font-size: 20px;&quot;&gt;N&lt;/font&gt;" style="text;html=1;align=center;verticalAlign=middle;resizable=0;points=[];autosize=1;strokeColor=none;fillColor=none;" vertex="1" parent="1">
          <mxGeometry x="1006" y="750" width="40" height="40" as="geometry" />
        </mxCell>
        <mxCell id="fwJii2BHvyb1H4AOAWzg-242" value="&lt;font face=&quot;Times New Roman&quot; style=&quot;font-size: 20px;&quot;&gt;M&lt;/font&gt;" style="text;html=1;align=center;verticalAlign=middle;resizable=0;points=[];autosize=1;strokeColor=none;fillColor=none;" vertex="1" parent="1">
          <mxGeometry x="1006" y="893" width="40" height="40" as="geometry" />
        </mxCell>
        <mxCell id="fwJii2BHvyb1H4AOAWzg-243" value="&lt;font face=&quot;Times New Roman&quot; style=&quot;font-size: 20px;&quot;&gt;N&lt;/font&gt;" style="text;html=1;align=center;verticalAlign=middle;resizable=0;points=[];autosize=1;strokeColor=none;fillColor=none;" vertex="1" parent="1">
          <mxGeometry x="780" y="749" width="40" height="40" as="geometry" />
        </mxCell>
        <mxCell id="fwJii2BHvyb1H4AOAWzg-244" value="&lt;font face=&quot;Times New Roman&quot; style=&quot;font-size: 20px;&quot;&gt;M&lt;/font&gt;" style="text;html=1;align=center;verticalAlign=middle;resizable=0;points=[];autosize=1;strokeColor=none;fillColor=none;" vertex="1" parent="1">
          <mxGeometry x="780" y="892" width="40" height="40" as="geometry" />
        </mxCell>
        <mxCell id="fwJii2BHvyb1H4AOAWzg-245" value="&lt;font face=&quot;Times New Roman&quot; style=&quot;font-size: 20px;&quot;&gt;N&lt;/font&gt;" style="text;html=1;align=center;verticalAlign=middle;resizable=0;points=[];autosize=1;strokeColor=none;fillColor=none;" vertex="1" parent="1">
          <mxGeometry x="1464" y="750" width="40" height="40" as="geometry" />
        </mxCell>
        <mxCell id="fwJii2BHvyb1H4AOAWzg-246" value="&lt;font face=&quot;Times New Roman&quot; style=&quot;font-size: 20px;&quot;&gt;M&lt;/font&gt;" style="text;html=1;align=center;verticalAlign=middle;resizable=0;points=[];autosize=1;strokeColor=none;fillColor=none;" vertex="1" parent="1">
          <mxGeometry x="1464" y="893" width="40" height="40" as="geometry" />
        </mxCell>
        <mxCell id="fwJii2BHvyb1H4AOAWzg-247" value="&lt;font face=&quot;Times New Roman&quot; style=&quot;font-size: 20px;&quot;&gt;1&lt;/font&gt;" style="text;html=1;align=center;verticalAlign=middle;resizable=0;points=[];autosize=1;strokeColor=none;fillColor=none;" vertex="1" parent="1">
          <mxGeometry x="1140" y="635" width="30" height="40" as="geometry" />
        </mxCell>
        <mxCell id="fwJii2BHvyb1H4AOAWzg-248" value="&lt;font face=&quot;Times New Roman&quot; style=&quot;font-size: 20px;&quot;&gt;1&lt;/font&gt;" style="text;html=1;align=center;verticalAlign=middle;resizable=0;points=[];autosize=1;strokeColor=none;fillColor=none;" vertex="1" parent="1">
          <mxGeometry x="1140" y="527" width="30" height="40" as="geometry" />
        </mxCell>
        <mxCell id="fwJii2BHvyb1H4AOAWzg-249" value="&lt;font face=&quot;Times New Roman&quot; style=&quot;font-size: 20px;&quot;&gt;1&lt;/font&gt;" style="text;html=1;align=center;verticalAlign=middle;resizable=0;points=[];autosize=1;strokeColor=none;fillColor=none;" vertex="1" parent="1">
          <mxGeometry x="989" y="1145" width="30" height="40" as="geometry" />
        </mxCell>
        <mxCell id="fwJii2BHvyb1H4AOAWzg-250" value="&lt;font face=&quot;Times New Roman&quot; style=&quot;font-size: 20px;&quot;&gt;1&lt;/font&gt;" style="text;html=1;align=center;verticalAlign=middle;resizable=0;points=[];autosize=1;strokeColor=none;fillColor=none;" vertex="1" parent="1">
          <mxGeometry x="989" y="1040" width="30" height="40" as="geometry" />
        </mxCell>
        <mxCell id="fwJii2BHvyb1H4AOAWzg-251" value="&lt;font face=&quot;Times New Roman&quot; style=&quot;font-size: 20px;&quot;&gt;1&lt;/font&gt;" style="text;html=1;align=center;verticalAlign=middle;resizable=0;points=[];autosize=1;strokeColor=none;fillColor=none;" vertex="1" parent="1">
          <mxGeometry x="1260" y="1145" width="30" height="40" as="geometry" />
        </mxCell>
        <mxCell id="fwJii2BHvyb1H4AOAWzg-252" value="&lt;font face=&quot;Times New Roman&quot; style=&quot;font-size: 20px;&quot;&gt;N&lt;/font&gt;" style="text;html=1;align=center;verticalAlign=middle;resizable=0;points=[];autosize=1;strokeColor=none;fillColor=none;" vertex="1" parent="1">
          <mxGeometry x="1255" y="1040" width="40" height="40" as="geometry" />
        </mxCell>
        <mxCell id="fwJii2BHvyb1H4AOAWzg-253" value="&lt;font face=&quot;Times New Roman&quot; style=&quot;font-size: 20px;&quot;&gt;N&lt;/font&gt;" style="text;html=1;align=center;verticalAlign=middle;resizable=0;points=[];autosize=1;strokeColor=none;fillColor=none;" vertex="1" parent="1">
          <mxGeometry x="639" y="836" width="40" height="40" as="geometry" />
        </mxCell>
        <mxCell id="fwJii2BHvyb1H4AOAWzg-254" value="&lt;font face=&quot;Times New Roman&quot; style=&quot;font-size: 20px;&quot;&gt;1&lt;/font&gt;" style="text;html=1;align=center;verticalAlign=middle;resizable=0;points=[];autosize=1;strokeColor=none;fillColor=none;" vertex="1" parent="1">
          <mxGeometry x="541" y="863" width="30" height="40" as="geometry" />
        </mxCell>
      </root>
    </mxGraphModel>
  </diagram>
</mxfile>
